<svg width="70" height="66" viewBox="0 0 70 66" fill="none" xmlns="http://www.w3.org/2000/svg">
<path d="M24.36 40V39.775L31.47 26.725H28.086C27.264 26.725 26.628 26.827 26.178 27.031C25.734 27.235 25.422 27.547 25.242 27.967C25.062 28.387 24.972 28.918 24.972 29.56H24.756V26.5H33.36V26.725L26.25 39.775H30.165C30.987 39.775 31.623 39.667 32.073 39.451C32.523 39.235 32.835 38.893 33.009 38.425C33.183 37.957 33.27 37.342 33.27 36.58H33.495V40H24.36ZM34.6457 40V39.775H40.0367C40.5527 39.775 41.0297 39.628 41.4677 39.334C41.9057 39.04 42.2567 38.626 42.5207 38.092C42.7907 37.558 42.9257 36.934 42.9257 36.22C42.9257 35.506 42.7907 34.927 42.5207 34.483C42.2567 34.033 41.9057 33.703 41.4677 33.493C41.0297 33.283 40.5557 33.178 40.0457 33.178H37.8857V33.034H40.2257C41.0717 33.034 41.8487 33.139 42.5567 33.349C43.2647 33.553 43.8317 33.889 44.2577 34.357C44.6837 34.819 44.8967 35.44 44.8967 36.22C44.8967 37.57 44.4797 38.539 43.6457 39.127C42.8177 39.709 41.6777 40 40.2257 40H34.6457ZM36.2567 39.91V26.59H37.9757V39.91H36.2567ZM37.8857 33.106V32.953H39.8657C40.3217 32.953 40.7537 32.857 41.1617 32.665C41.5757 32.473 41.9117 32.164 42.1697 31.738C42.4337 31.306 42.5657 30.733 42.5657 30.019C42.5657 29.305 42.4337 28.705 42.1697 28.219C41.9117 27.727 41.5757 27.355 41.1617 27.103C40.7537 26.851 40.3217 26.725 39.8657 26.725H34.6457V26.5H39.8657C41.2277 26.5 42.3167 26.764 43.1327 27.292C43.9547 27.814 44.3657 28.66 44.3657 29.83C44.3657 31 43.9787 31.84 43.2047 32.35C42.4307 32.854 41.3177 33.106 39.8657 33.106H37.8857Z" fill="white"/>
</svg>
